<?xml version="1.0" encoding="utf-8"?>
<!-- Generator: Adobe Illustrator 23.0.0, SVG Export Plug-In . SVG Version: 6.00 Build 0)  -->
<svg version="1.1" id="Layer_1" xmlns="http://www.w3.org/2000/svg" xmlns:xlink="http://www.w3.org/1999/xlink" x="0px" y="0px"
	 viewBox="0 0 23 27" style="enable-background:new 0 0 23 27;" xml:space="preserve">
<style type="text/css">
	.st0{fill:#FFFFFF;}
</style>
<g>
	<path class="st0" d="M22.9,5.1L22.9,5.1V4.9c0,0,0-0.1-0.1-0.1c0,0,0-0.1-0.1-0.1c0,0,0,0-0.1,0l-0.1-0.1l0,0L10.4,0h-0.1h-0.1l0,0
		h-0.1H10c0,0-0.1,0-0.1,0.1c0,0-0.1,0-0.1,0.1c0,0,0,0,0,0.1L9.7,0.4l0,0v0.1v0.1v16.2c-1-0.8-2.5-1.3-4.2-1.3C2.4,15.5,0,17,0,19
		s2.4,3.5,5.4,3.5s5.4-1.5,5.4-3.5V5.1l11.1,4.1v12.1c-1-0.8-2.5-1.3-4.2-1.3c-3,0-5.4,1.5-5.4,3.5s2.4,3.5,5.4,3.5s5.4-1.5,5.4-3.5
		L22.9,5.1L22.9,5.1z M5.4,21.3c-2.3,0-4.2-1.1-4.2-2.3c0-1.3,1.9-2.3,4.2-2.3s4.2,1.1,4.2,2.3C9.6,20.2,7.7,21.3,5.4,21.3z
		 M10.8,3.9V1.4l11.1,4.1V8L10.8,3.9z M17.5,25.8c-2.3,0-4.2-1.1-4.2-2.3s1.9-2.3,4.2-2.3s4.2,1.1,4.2,2.3S19.8,25.8,17.5,25.8z"/>
</g>
</svg>
